# xmcd CD database file
#
# Track frame offsets:
#	150
#	22363
#	46719
#	68130
#
# Disc length: 1314 seconds
#
# Revision: 0
# Processed by: cddbd v1.5.1PL0 Copyright (c) Steve Scherf et al.
# Submitted via: CDex 1.51
#
DISCID=30052004
DTITLE=ラリーパパ＆カーネギーママ - Good Times Are Comin'
DYEAR=2001
DGENRE=Country
TTITLE0=冬の日の情景
TTITLE1=ふらいと
TTITLE2=まちとまち
TTITLE3=風に乗って
EXTD=YEAR: 2001
EXTT0=
EXTT1=
EXTT2=
EXTT3=
PLAYORDER=
